<?xml version="1.0" standalone="no"?>
<!DOCTYPE svg PUBLIC "-//W3C//DTD SVG 20010904//EN"
 "http://www.w3.org/TR/2001/REC-SVG-20010904/DTD/svg10.dtd">
<svg version="1.0" xmlns="http://www.w3.org/2000/svg"
 width="1280.000000pt" height="1141.000000pt" viewBox="0 0 1280.000000 1141.000000"
 preserveAspectRatio="xMidYMid meet">
<metadata>
Created by potrace 1.15, written by Peter Selinger 2001-2017
</metadata>
<g transform="translate(0.000000,1141.000000) scale(0.100000,-0.100000)"
fill="#000000" stroke="none">
<path d="M6504 11184 c-34 -36 -74 -89 -89 -118 -15 -28 -44 -71 -64 -96 -21
-25 -51 -65 -67 -90 -17 -25 -62 -89 -100 -144 -38 -54 -86 -132 -107 -173
-21 -42 -53 -94 -71 -117 -18 -22 -39 -52 -46 -65 -7 -13 -60 -79 -119 -146
-58 -67 -135 -168 -171 -225 -36 -56 -91 -132 -123 -168 -99 -113 -147 -182
-197 -287 -50 -104 -99 -170 -219 -294 -63 -65 -100 -113 -189 -247 -21 -32
-26 -34 -76 -34 -87 0 -198 -26 -393 -91 -195 -65 -181 -57 -583 -319 -58 -37
-119 -71 -136 -74 -47 -9 -176 35 -265 91 -82 52 -270 194 -413 313 -50 42
-101 82 -113 91 -12 8 -49 40 -81 70 -32 30 -76 69 -97 88 -98 83 -149 139
-177 195 -25 49 -74 105 -243 273 -117 117 -228 236 -247 265 -162 244 -154
230 -211 405 -48 147 -57 187 -71 327 -17 154 -35 224 -72 282 -10 14 -21 21
-25 17 -14 -14 -96 -209 -113 -268 -22 -73 -22 -242 -2 -370 9 -55 21 -128 26
-161 25 -155 115 -351 217 -472 65 -77 205 -344 262 -499 17 -45 63 -140 103
-210 97 -172 126 -233 188 -398 28 -77 60 -157 70 -177 38 -74 100 -228 114
-280 8 -29 19 -66 26 -83 11 -30 43 -160 61 -250 6 -27 10 -90 10 -140 0 -49
7 -155 15 -235 48 -464 32 -708 -69 -1005 -46 -135 -90 -214 -170 -305 -18
-20 -63 -74 -102 -120 -38 -46 -113 -132 -165 -190 -95 -106 -282 -355 -330
-437 -83 -143 -137 -216 -225 -303 -136 -135 -167 -187 -260 -440 -29 -79 -49
-110 -71 -110 -7 0 -25 -5 -39 -12 -24 -11 -26 -16 -20 -52 16 -105 15 -136
-4 -232 -20 -106 -62 -204 -101 -239 -31 -28 -75 -94 -88 -132 -7 -22 -8 -64
-1 -139 6 -59 8 -117 5 -129 -3 -12 -29 -38 -58 -58 -134 -93 -309 -254 -385
-354 -32 -43 -104 -147 -158 -232 -130 -201 -228 -302 -370 -382 l-100 -57 -3
-1221 -2 -1221 3456 0 3455 0 -236 233 c-131 127 -249 250 -264 272 -15 22
-35 65 -45 95 -34 109 -86 408 -86 495 0 30 3 32 63 50 102 30 182 73 260 138
40 34 94 75 120 92 152 95 390 715 362 939 -4 28 -20 80 -37 115 -28 59 -29
67 -18 106 17 62 5 118 -35 160 -18 19 -47 38 -65 41 -17 4 -34 13 -37 20 -3
8 49 78 119 161 68 82 140 170 159 197 19 26 43 61 54 76 66 91 114 161 140
207 65 114 271 346 380 428 69 51 72 53 150 57 93 5 278 -8 303 -22 89 -49
182 -81 245 -84 65 -3 75 0 151 39 44 22 107 58 139 79 52 34 68 38 155 47 53
5 118 18 144 29 26 11 53 20 60 20 32 0 301 95 401 142 106 49 110 51 215 54
59 2 159 8 222 13 63 6 147 11 185 11 157 0 334 44 436 108 20 12 40 22 44 22
4 0 35 17 69 37 113 69 190 139 269 247 43 57 84 109 92 116 7 6 23 40 35 75
34 101 43 109 220 188 70 32 185 130 232 199 45 66 60 97 101 200 l32 83 0
195 c0 155 4 208 18 258 15 54 16 74 7 144 -6 44 -20 103 -31 130 -10 27 -19
62 -19 78 0 25 4 30 24 30 56 0 96 65 136 217 17 66 19 89 11 121 -22 80 -112
188 -216 259 -114 77 -357 190 -575 269 -80 28 -183 65 -229 82 -46 17 -118
36 -160 43 -42 6 -94 17 -116 25 -47 16 -144 30 -307 43 -91 8 -133 17 -195
41 -62 24 -102 33 -193 40 -126 10 -198 27 -397 94 -73 24 -175 52 -228 61
-52 9 -110 22 -128 30 -98 41 -181 222 -202 440 -10 114 -30 168 -86 235 -28
34 -61 65 -75 70 -13 5 -43 19 -66 30 -42 20 -166 70 -257 104 -83 30 -186
101 -286 197 -148 141 -214 173 -382 182 -76 5 -107 12 -180 42 -126 53 -249
92 -329 105 -38 7 -118 22 -179 35 -60 13 -153 27 -205 30 -52 4 -109 13 -126
20 l-31 13 4 73 c2 41 13 121 24 179 29 161 49 324 54 445 3 61 10 151 16 200
12 101 7 491 -9 703 -13 164 -27 241 -74 407 -34 118 -66 124 -154 29z"/>
</g>
</svg>
