<?xml version="1.0" standalone="no"?>
<!DOCTYPE svg PUBLIC "-//W3C//DTD SVG 20010904//EN"
 "http://www.w3.org/TR/2001/REC-SVG-20010904/DTD/svg10.dtd">
<svg version="1.0" xmlns="http://www.w3.org/2000/svg"
 width="1042.000000pt" height="1280.000000pt" viewBox="0 0 1042.000000 1280.000000"
 preserveAspectRatio="xMidYMid meet">
<metadata>
Created by potrace 1.15, written by Peter Selinger 2001-2017
</metadata>
<g transform="translate(0.000000,1280.000000) scale(0.100000,-0.100000)"
fill="#000000" stroke="none">
<path d="M9307 12790 c-395 -72 -787 -411 -1173 -1015 -413 -646 -778 -1588
-974 -2515 -23 -107 -44 -207 -48 -221 l-7 -27 -85 50 c-452 265 -974 431
-1498 479 -169 15 -584 6 -742 -15 -507 -71 -966 -234 -1409 -501 -79 -47
-144 -85 -145 -83 -1 2 -21 81 -44 176 -157 633 -424 1338 -697 1843 -513 946
-1084 1432 -1595 1356 -169 -25 -288 -87 -421 -217 -218 -214 -355 -545 -424
-1025 -204 -1416 326 -3603 1181 -4876 l91 -136 6 -94 c17 -231 87 -504 269
-1039 330 -970 398 -1177 428 -1295 l33 -130 8 -690 c4 -379 12 -762 18 -850
47 -675 123 -1060 266 -1350 108 -220 233 -354 410 -441 155 -76 215 -88 470
-88 244 0 270 3 790 103 660 127 954 159 1380 148 394 -10 651 -49 1280 -197
507 -119 684 -147 880 -137 596 30 892 463 999 1462 39 367 47 558 56 1325 8
743 6 705 61 1025 23 139 50 281 153 820 175 913 224 1288 214 1633 l-6 176
87 120 c778 1086 1335 2995 1298 4451 -24 916 -253 1500 -672 1712 -113 58
-312 86 -438 63z"/>
</g>
</svg>
